<svg t="1664203810393" class="icon" viewBox="0 0 1024 1024" version="1.1" xmlns="http://www.w3.org/2000/svg" p-id="14906" width="16" height="16"><path d="M512 448c-70.4 0-128 57.6-128 128s57.6 128 128 128 128-57.6 128-128-57.6-128-128-128z m372.032-448l141.184 156.928L1024 910.208 1023.872 1024H0.192L0 910.208l0.192-753.28L137.536 0h746.496zM120.576 113.792h782.272l-52.928-56.96H167.232l-46.656 56.96zM758.72 576a237.44 237.44 0 0 0-2.304-31.552l69.568-52.992a15.872 15.872 0 0 0 3.712-20.608L763.904 360.32c-4.224-6.912-12.672-9.6-20.224-6.912l-81.728 32c-16.96-12.8-35.264-23.296-55.488-31.488l-12.16-84.608A16.96 16.96 0 0 0 577.728 256H446.208a16.896 16.896 0 0 0-16.448 13.696l-12.224 84.608a253.76 253.76 0 0 0-55.488 31.552l-81.728-32a16.832 16.832 0 0 0-20.224 6.848L194.304 471.296a15.872 15.872 0 0 0 3.712 20.608l69.568 52.992A225.152 225.152 0 0 0 265.28 576c0 10.496 0.896 21.056 2.304 31.552l-69.568 52.992a15.872 15.872 0 0 0-3.712 20.608l65.792 110.592c4.224 6.912 12.672 9.6 20.224 6.912l81.728-32c16.96 12.8 35.264 23.296 55.488 31.488l12.16 84.608a16.96 16.96 0 0 0 16.512 13.248h131.584a16.896 16.896 0 0 0 16.448-13.696l12.224-84.608c19.776-8.192 38.528-18.752 55.488-31.552l81.728 32c7.552 2.752 16 0 20.224-6.848l65.792-110.592a15.872 15.872 0 0 0-3.712-20.608l-69.568-52.992c1.408-10.048 2.304-20.608 2.304-31.104z" fill="#2979FF" p-id="14907"></path></svg>