<svg t="1664190230524" class="icon" viewBox="0 0 1024 1024" version="1.1" xmlns="http://www.w3.org/2000/svg" p-id="4809" width="16" height="16"><path d="M903.232 562.176c2.432-21.824 3.648-38.592 3.648-50.176 0-17.408-1.6-33.792-3.648-50.176l120.64-102.656-113.664-204.544-158.08 52.736a387.328 387.328 0 0 0-88.96-50.176L633.92 0H396.352l-35.328 157.184c-32.064 12.8-61.568 30.208-88.96 50.176l-155.84-52.736L0.192 359.168 120.96 461.824c-2.112 16.384-3.712 33.28-3.712 50.176s1.6 33.792 3.712 50.176L12.544 657.088 128 866.816l144-50.176c27.392 20.48 56.896 37.376 88.96 50.176L394.688 1024h239.232l29.248-157.184c32.128-12.8 61.568-30.208 88.96-50.176l145.216 50.176 125.12-209.728-119.232-94.912z m-104.256-87.552c2.112 15.872 2.624 26.624 2.624 37.376 0 10.752-1.024 22.016-2.56 37.376l-7.424 57.856 46.848 35.84 56.832 43.008-36.864 61.952-66.816-26.112-54.72-21.504-47.36 34.816a310.4 310.4 0 0 1-65.856 37.376l-55.744 22.016-8.448 57.856-10.496 69.12H475.264l-9.984-69.12-8.448-57.856-55.808-22.016a300.8 300.8 0 0 1-64.704-36.352l-47.936-35.84-55.744 22.016-66.88 26.112-36.864-61.952 56.896-43.008 46.848-35.84-7.36-57.856A400.768 400.768 0 0 1 222.592 512c0-10.24 1.088-22.016 2.688-37.376l7.36-57.856-46.848-35.84-56.896-43.008 36.864-61.952 66.88 26.112 54.72 21.504 47.36-34.816a310.4 310.4 0 0 1 65.792-37.376l55.808-22.016 8.448-57.856 10.496-69.12H548.48l10.048 69.12 8.384 57.856 55.808 22.016a300.8 300.8 0 0 1 64.768 36.352l47.872 35.84 55.808-22.016 66.816-26.112 36.864 61.952-56.32 43.52-46.848 35.84 7.36 57.856zM512 320a192 192 0 1 0 0 384 192 192 0 1 0 0-384z m0 288c-52.8 0-96-43.2-96-96S459.2 416 512 416s96 43.2 96 96S564.8 608 512 608z" fill="#2979FF" p-id="4810"></path></svg>