<svg t="1664192245264" class="icon" viewBox="0 0 1024 1024" version="1.1" xmlns="http://www.w3.org/2000/svg" p-id="2641" width="16" height="16"><path d="M590.222222 73.955556L859.022222 342.254933V876.088889c0 37.700267-30.5664 68.266667-68.266666 68.266667H233.244444c-37.700267 0-68.266667-30.5664-68.266666-68.266667V142.222222c0-37.700267 30.5664-68.266667 68.266666-68.266666h356.977778z m-11.764622 28.444444H233.244444a39.822222 39.822222 0 0 0-39.799466 38.456889L193.422222 142.222222v733.866667a39.822222 39.822222 0 0 0 38.456889 39.799467L233.244444 915.911111h557.511112a39.822222 39.822222 0 0 0 39.799466-38.456889L830.577778 876.088889V354.053689L578.4576 102.4z" fill="#7CB305" p-id="2642"></path><path d="M854.755556 370.648178h-215.1424c-45.528178 0-82.551467-36.431644-83.5072-81.737956l-0.017067-1.792V73.955556h28.444444v213.162666c0 29.895111 23.819378 54.232178 53.515378 55.062756l1.564445 0.022755h215.1424v28.444445z" fill="#7CB305" p-id="2643"></path><path d="M56.888889 489.244444m28.444444 0l853.333334 0q28.444444 0 28.444444 28.444445l0 284.444444q0 28.444444-28.444444 28.444445l-853.333334 0q-28.444444 0-28.444444-28.444445l0-284.444444q0-28.444444 28.444444-28.444445Z" fill="#7CB305" p-id="2644"></path><path d="M201.824711 760.206222c24.837689 0 46.08-9.472 62.213689-28.16l-24.064-28.672c-8.96 9.728-20.992 17.408-36.352 17.408-26.885689 0-44.288-22.016-44.288-59.904 0-37.12 20.224-59.136 44.8-59.136 13.562311 0 23.552 6.144 33.28 14.848l23.802311-29.184c-13.050311-13.312-33.024-24.832-57.856-24.832-48.384 0-90.874311 36.352-90.874311 99.84 0 64.512 40.96 97.792 89.338311 97.792z m210.181689-3.584v-38.4h-74.24V565.902222h-45.824V756.622222h120.064z m55.546311 0l11.013689-43.776h56.32L545.883022 756.622222h48.128L534.8864 565.902222h-54.784L420.9664 756.622222h46.592z m58.629689-79.104h-38.912l4.096-16.128c4.864-18.944 9.978311-41.216 14.586311-61.184h1.024c5.12 19.456 9.984 42.24 15.104 61.184l4.096 16.128z m146.944 82.688c46.08 0 72.704-27.904 72.704-59.648 0-26.88-14.085689-42.752-37.637689-52.224l-23.802311-9.472c-16.896-6.656-28.672-10.752-28.672-21.504 0-9.984 8.442311-15.616 22.528-15.616 14.848 0 26.624 5.12 39.168 14.592l22.784-28.672c-16.64-16.64-39.936-25.088-61.952-25.088-40.448 0-69.12 25.6-69.12 57.6 0 27.648 18.688 44.288 38.656 52.224l24.32 10.24c16.384 6.912 26.88 10.496 26.88 21.504 0 10.24-7.936 16.64-24.832 16.64-15.109689 0-32.768-7.936-46.08-19.456l-26.112 31.488c19.712 18.176 46.330311 27.392 71.168 27.392z m163.578311 0c46.08 0 72.704-27.904 72.704-59.648 0-26.88-14.08-42.752-37.626311-52.224l-23.808-9.472c-16.896-6.656-28.672-10.752-28.672-21.504 0-9.984 8.442311-15.616 22.528-15.616 14.848 0 26.624 5.12 39.168 14.592l22.784-28.672c-16.64-16.64-39.936-25.088-61.952-25.088-40.448 0-69.12 25.6-69.12 57.6 0 27.648 18.688 44.288 38.650311 52.224l24.32 10.24c16.384 6.912 26.885689 10.496 26.885689 21.504 0 10.24-7.936 16.64-24.832 16.64-15.109689 0-32.768-7.936-46.08-19.456l-26.112 31.488c19.706311 18.176 46.330311 27.392 71.168 27.392z" fill="#FFFFFF" p-id="2645"></path></svg>