<svg t="1664192427104" class="icon" viewBox="0 0 1024 1024" version="1.1" xmlns="http://www.w3.org/2000/svg" p-id="8745" width="16" height="16"><path d="M0 98.013405C0 72.413405 17.075892 55.351351 42.675892 55.351351h349.875892c17.062054 0 34.124108 17.062054 42.675892 34.124108l16.439351 51.2H972.8c25.6 0 42.675892 17.075892 42.675892 42.675892v733.875892c8.524108 25.6-8.537946 42.662054-34.137946 42.662054H42.675892C17.075892 959.889297 0 942.827243 0 917.227243V98.013405z" fill="#1965DB" p-id="8746"></path><path d="M904.537946 908.689297H119.475892c-25.6 0-42.675892-17.062054-42.675892-42.662054v-614.4c0-25.6 17.075892-42.675892 42.675892-42.675892h793.6c25.6 0 42.662054 17.075892 42.662054 42.675892v614.4c0 17.062054-25.6 42.662054-51.2 42.662054" fill="#FFFFFF" p-id="8747"></path><path d="M981.337946 959.889297H42.675892C17.075892 959.889297 0 942.827243 0 917.227243V336.951351c0-25.6 17.075892-42.662054 42.675892-42.662054H972.8C1006.937946 285.751351 1024 311.351351 1024 336.951351v580.275892c0 25.6-17.062054 42.662054-42.662054 42.662054" fill="#4690F7" p-id="8748"></path><path d="M366.937946 627.075459H119.475892c-8.537946 0-25.6-8.537946-25.6-25.6s8.524108-25.6 25.6-25.6h247.462054c8.537946 0 25.6 8.537946 25.6 25.6-8.537946 17.062054-17.062054 25.6-25.6 25.6m0-153.6H119.475892c-8.537946 0-25.6-8.537946-25.6-25.6 0-17.048216 8.524108-25.6 25.6-25.6h247.462054c8.537946 0 25.6 8.551784 25.6 25.6 0 17.062054-17.062054 25.6-25.6 25.6" fill="#FFFFFF" p-id="8749"></path><path d="M894.477838 838.545297a12.60627 12.60627 0 0 0-5.839568 10.24c-0.055351 1.591351-1.466811 2.739892-3.307243 2.795244H647.749189l-0.871784-0.083027c-1.065514-0.235243-1.522162-0.83027-1.549837-1.010163l38.358486-152.036324c0.096865-0.415135 1.079351-1.203892 2.463135-1.203892H926.304865c0.802595 0.096865 1.660541 0.166054 2.24173 0.166054 1.259243 0.262919 1.674378 0.954811 1.702054 0.968649L894.477838 838.559135zM644.704865 604.339892l72.524108-0.110703 10.032432 19.082379c3.943784 7.057297 11.153297 11.720649 19.386811 11.347027l139.028757-0.013838c1.425297-0.152216 2.905946 1.21773 2.961297 2.380108v30.304865c0 1.563676 0.31827 3.044324 0.830271 4.428108h-203.416217c-12.813838 0.083027-23.939459 8.399568-27.06681 20.341621l-17.60173 69.742703V607.121297c0.055351-1.577514 1.452973-2.684541 3.321081-2.781405z m307.033946 80.439351a27.980108 27.980108 0 0 0-18.044541-12.315675 28.409081 28.409081 0 0 0-4.469621-0.567352 11.651459 11.651459 0 0 0-1.840433-0.138378H913.297297c0.512-1.383784 0.83027-2.864432 0.830271-4.428108v-30.733838c-0.512-15.539892-13.284324-27.869405-28.782703-27.440433H748.627027l-8.994595-17.117405a26.250378 26.250378 0 0 0-22.749405-13.187459h-71.818378c-15.899676-0.636541-28.630486 11.872865-29.142487 27.855567V849.643243c0.512 15.290811 13.159784 27.440432 28.03546 27.440433l0.747243-0.013838H889.081081c12.952216 0 24.091676-8.371892 27.066811-20.313946l38.842811-152.147027a25.392432 25.392432 0 0 0-3.238054-19.829622z" fill="#1965DB" p-id="8750"></path></svg>