<svg t="1664192257113" class="icon" viewBox="0 0 1024 1024" version="1.1" xmlns="http://www.w3.org/2000/svg" p-id="2830" width="16" height="16"><path d="M590.222222 73.955556L859.022222 342.254933V876.088889c0 37.700267-30.5664 68.266667-68.266666 68.266667H233.244444c-37.700267 0-68.266667-30.5664-68.266666-68.266667V142.222222c0-37.700267 30.5664-68.266667 68.266666-68.266666h356.977778z m-11.770311 28.438755H233.244444a39.827911 39.827911 0 0 0-39.799466 38.456889L193.422222 142.222222v733.866667a39.822222 39.822222 0 0 0 38.456889 39.799467L233.244444 915.911111h557.511112a39.822222 39.822222 0 0 0 39.799466-38.456889L830.577778 876.088889V354.053689l-252.125867-251.659378z" fill="#1890FF" p-id="2831"></path><path d="M854.755556 370.648178h-215.1424c-45.528178 0-82.551467-36.431644-83.5072-81.737956l-0.017067-1.792V73.955556h28.444444v213.162666c0 29.895111 23.819378 54.232178 53.515378 55.062756l1.564445 0.022755h215.1424v28.444445z" fill="#1890FF" p-id="2832"></path><path d="M56.888889 489.244444m28.444444 0l853.333334 0q28.444444 0 28.444444 28.444445l0 284.444444q0 28.444444-28.444444 28.444445l-853.333334 0q-28.444444 0-28.444444-28.444445l0-284.444444q0-28.444444 28.444444-28.444445Z" fill="#1890FF" p-id="2833"></path><path d="M303.530667 756.622222c55.552 0 93.952-29.952 93.952-96.256 0-66.304-38.4-94.464-96.512-94.464h-54.784V756.622222h57.344z m-5.376-36.864h-6.144v-117.248h6.144c30.72 0 52.48 12.544 52.48 57.856s-21.76 59.392-52.48 59.392z m213.248 40.448c51.968 0 87.296-37.376 87.296-99.84 0-62.208-35.328-97.792-87.296-97.792-51.968 0-87.296 35.328-87.296 97.792s35.328 99.84 87.296 99.84z m0-39.424c-25.088 0-40.448-23.552-40.448-60.416 0-36.864 15.36-58.624 40.448-58.624s40.704 21.76 40.704 58.624c0 36.864-15.616 60.416-40.704 60.416z m203.264 39.424c24.832 0 46.08-9.472 62.208-28.16l-24.064-28.672c-8.96 9.728-20.992 17.408-36.352 17.408-26.88 0-44.288-22.016-44.288-59.904 0-37.12 20.224-59.136 44.8-59.136 13.568 0 23.552 6.144 33.28 14.848l23.808-29.184c-13.056-13.312-33.024-24.832-57.856-24.832-48.384 0-90.88 36.352-90.88 99.84 0 64.512 40.96 97.792 89.344 97.792z" fill="#FFFFFF" p-id="2834"></path></svg>