<svg t="1664192191799" class="icon" viewBox="0 0 1024 1024" version="1.1" xmlns="http://www.w3.org/2000/svg" p-id="1682" width="16" height="16"><path d="M590.222222 73.955556L859.022222 342.254933V876.088889c0 37.700267-30.5664 68.266667-68.266666 68.266667H233.244444c-37.700267 0-68.266667-30.5664-68.266666-68.266667V142.222222c0-37.700267 30.5664-68.266667 68.266666-68.266666h356.977778z m-11.764622 28.444444H233.244444a39.822222 39.822222 0 0 0-39.799466 38.456889L193.422222 142.222222v733.866667a39.822222 39.822222 0 0 0 38.456889 39.799467L233.244444 915.911111h557.511112a39.822222 39.822222 0 0 0 39.799466-38.456889L830.577778 876.088889V354.053689L578.4576 102.4z" fill="#FF4D4F" p-id="1683"></path><path d="M854.755556 370.648178h-215.1424c-45.528178 0-82.551467-36.431644-83.5072-81.737956l-0.017067-1.792V73.955556h28.444444v213.162666c0 29.895111 23.819378 54.232178 53.515378 55.062756l1.564445 0.022755h215.1424v28.444445z" fill="#FF4D4F" p-id="1684"></path><path d="M56.888889 489.244444m28.444444 0l853.333334 0q28.444444 0 28.444444 28.444445l0 284.444444q0 28.444444-28.444444 28.444445l-853.333334 0q-28.444444 0-28.444444-28.444445l0-284.444444q0-28.444444 28.444444-28.444445Z" fill="#FF4D4F" p-id="1685"></path><path d="M330.097778 757.504c42.752 0 62.464-30.72 62.464-68.096V563.2H346.737778v122.624c0 24.832-7.936 32.256-22.784 32.256-9.216 0-18.944-5.888-25.6-18.944L267.377778 722.432c13.568 23.552 33.024 35.072 62.72 35.072zM525.169778 563.2l59.136 190.72h-48.128l-11.008-43.776h-56.32l-11.008 43.776h-46.592L470.385778 563.2h54.784z m-27.904 34.304h-1.024c-4.608 19.968-9.728 42.24-14.592 61.184l-4.096 16.128h38.912l-4.096-16.128c-5.12-18.944-9.984-41.728-15.104-61.184zM674.161778 563.2c40.704 0 74.496 14.08 74.496 60.16 0 27.904-13.056 45.824-32.768 55.04l42.496 75.52h-51.2l-35.072-67.072h-22.016v67.072h-45.824V563.2z m-3.584 36.352h-20.48v51.2h20.48c21.76 0 33.536-9.472 33.536-27.392 0-17.92-11.776-23.808-33.536-23.808z" fill="#FFFFFF" p-id="1686"></path></svg>