<svg t="1664192284040" class="icon" viewBox="0 0 1024 1024" version="1.1" xmlns="http://www.w3.org/2000/svg" p-id="3403" width="16" height="16"><path d="M590.222222 73.955556L859.022222 342.254933V876.088889c0 37.700267-30.5664 68.266667-68.266666 68.266667H233.244444c-37.700267 0-68.266667-30.5664-68.266666-68.266667V142.222222c0-37.700267 30.5664-68.266667 68.266666-68.266666h356.977778z m-11.764622 28.444444H233.244444a39.822222 39.822222 0 0 0-39.799466 38.456889L193.422222 142.222222v733.866667a39.822222 39.822222 0 0 0 38.456889 39.799467L233.244444 915.911111h557.511112a39.822222 39.822222 0 0 0 39.799466-38.456889L830.577778 876.088889V354.053689L578.4576 102.4z" fill="#20B2AA" p-id="3404"></path><path d="M854.755556 370.648178h-215.1424c-45.528178 0-82.551467-36.431644-83.5072-81.737956l-0.017067-1.792V73.955556h28.444444v213.162666c0 29.895111 23.819378 54.232178 53.515378 55.062756l1.564445 0.022755h215.1424v28.444445z" fill="#20B2AA" p-id="3405"></path><path d="M56.888889 489.244444m28.444444 0l853.333334 0q28.444444 0 28.444444 28.444445l0 284.444444q0 28.444444-28.444444 28.444445l-853.333334 0q-28.444444 0-28.444444-28.444445l0-284.444444q0-28.444444 28.444444-28.444445Z" fill="#20B2AA" p-id="3406"></path><path d="M366.563556 756.622222v-65.28c0-18.944-3.584-47.36-5.888-66.048h1.024l15.36 45.568 25.856 69.632h25.088l25.6-69.632 15.872-45.568h1.28c-2.56 18.688-6.144 47.104-6.144 66.048V756.622222h41.728V565.902222h-49.664l-29.184 82.432c-3.584 11.008-6.656 23.04-10.496 34.56h-1.28c-3.584-11.52-6.656-23.552-10.496-34.56l-30.208-82.432h-49.408V756.622222h40.96z m240.896 0c55.552 0 93.952-29.952 93.952-96.256 0-66.304-38.4-94.464-96.512-94.464H550.115556V756.622222h57.344z m-5.376-36.864h-6.144v-117.248h6.144c30.72 0 52.48 12.544 52.48 57.856s-21.76 59.392-52.48 59.392z" fill="#FFFFFF" p-id="3407"></path></svg>