<svg t="1664192332730" class="icon" viewBox="0 0 1024 1024" version="1.1" xmlns="http://www.w3.org/2000/svg" p-id="4243" width="16" height="16"><path d="M590.222222 73.955556L859.022222 342.254933V876.088889c0 37.700267-30.5664 68.266667-68.266666 68.266667H233.244444c-37.700267 0-68.266667-30.5664-68.266666-68.266667V142.222222c0-37.700267 30.5664-68.266667 68.266666-68.266666h356.977778z m-11.764622 28.444444H233.244444a39.822222 39.822222 0 0 0-39.799466 38.456889L193.422222 142.222222v733.866667a39.822222 39.822222 0 0 0 38.456889 39.799467L233.244444 915.911111h557.511112a39.822222 39.822222 0 0 0 39.799466-38.456889L830.577778 876.088889V354.053689L578.4576 102.4z" fill="#FF7A45" p-id="4244"></path><path d="M854.755556 370.648178h-215.1424c-45.528178 0-82.551467-36.431644-83.5072-81.737956l-0.017067-1.792V73.955556h28.444444v213.162666c0 29.895111 23.819378 54.232178 53.515378 55.062756l1.564445 0.022755h215.1424v28.444445z" fill="#FF7A45" p-id="4245"></path><path d="M56.888889 489.244444m28.444444 0l853.333334 0q28.444444 0 28.444444 28.444445l0 284.444444q0 28.444444-28.444444 28.444445l-853.333334 0q-28.444444 0-28.444444-28.444445l0-284.444444q0-28.444444 28.444444-28.444445Z" fill="#FF7A45" p-id="4246"></path><path d="M313.514667 756.622222v-63.232h22.272c40.448 0 75.264-19.968 75.264-65.28 0-47.104-34.56-62.208-76.288-62.208h-67.072V756.622222h45.824z m19.968-99.328h-19.968v-55.04h18.688c22.016 0 34.304 6.656 34.304 25.856 0 18.688-10.752 29.184-33.024 29.184zM489.386667 756.622222v-63.232h22.272c40.448 0 75.264-19.968 75.264-65.28 0-47.104-34.56-62.208-76.288-62.208H443.562667V756.622222h45.824z m19.968-99.328h-19.968v-55.04h18.688c22.016 0 34.304 6.656 34.304 25.856 0 18.688-10.752 29.184-33.024 29.184zM702.122667 756.622222v-152.576h51.712v-38.144h-148.992v38.144h51.456V756.622222h45.824z" fill="#FFFFFF" p-id="4247"></path></svg>