<svg t="1664192342294" class="icon" viewBox="0 0 1024 1024" version="1.1" xmlns="http://www.w3.org/2000/svg" p-id="4478" width="16" height="16"><path d="M590.222222 73.955556L859.022222 342.254933V876.088889c0 37.700267-30.5664 68.266667-68.266666 68.266667H233.244444c-37.700267 0-68.266667-30.5664-68.266666-68.266667V142.222222c0-37.700267 30.5664-68.266667 68.266666-68.266666h356.977778z m-11.764622 28.444444H233.244444a39.822222 39.822222 0 0 0-39.799466 38.456889L193.422222 142.222222v733.866667a39.822222 39.822222 0 0 0 38.456889 39.799467L233.244444 915.911111h557.511112a39.822222 39.822222 0 0 0 39.799466-38.456889L830.577778 876.088889V354.053689L578.4576 102.4z" fill="#73D13D" p-id="4479"></path><path d="M854.755556 370.648178h-215.1424c-45.528178 0-82.551467-36.431644-83.5072-81.737956l-0.017067-1.792V73.955556h28.444444v213.162666c0 29.895111 23.819378 54.232178 53.515378 55.062756l1.564445 0.022755h215.1424v28.444445z" fill="#73D13D" p-id="4480"></path><path d="M56.888889 489.244444m28.444444 0l853.333334 0q28.444444 0 28.444444 28.444445l0 284.444444q0 28.444444-28.444444 28.444445l-853.333334 0q-28.444444 0-28.444444-28.444445l0-284.444444q0-28.444444 28.444444-28.444445Z" fill="#73D13D" p-id="4481"></path><path d="M327.224889 756.622222l16.384-37.12c4.352-9.984 8.704-19.968 13.056-31.744h1.024c5.12 11.776 9.472 21.76 14.08 31.744L389.432889 756.622222h50.944l-52.48-96 49.152-94.72H388.664889l-13.824 34.304a503.443911 503.443911 0 0 0-12.288 31.232h-1.024c-5.376-12.288-9.472-22.272-13.824-31.232l-15.36-34.304h-50.944l49.408 92.672L278.584889 756.622222h48.64z m258.304 0v-38.4h-74.24V565.902222H465.464889V756.622222h120.064z m92.16 3.584c46.08 0 72.704-27.904 72.704-59.648 0-26.88-14.08-42.752-37.632-52.224l-23.808-9.472c-16.896-6.656-28.672-10.752-28.672-21.504 0-9.984 8.448-15.616 22.528-15.616 14.848 0 26.624 5.12 39.168 14.592l22.784-28.672c-16.64-16.64-39.936-25.088-61.952-25.088-40.448 0-69.12 25.6-69.12 57.6 0 27.648 18.688 44.288 38.656 52.224l24.32 10.24c16.384 6.912 26.88 10.496 26.88 21.504 0 10.24-7.936 16.64-24.832 16.64-15.104 0-32.768-7.936-46.08-19.456l-26.112 31.488c19.712 18.176 46.336 27.392 71.168 27.392z" fill="#FFFFFF" p-id="4482"></path></svg>